<?xml version="1.0" encoding="iso-8859-1"?>
<!-- Generator: Adobe Illustrator 19.0.0, SVG Export Plug-In . SVG Version: 6.00 Build 0)  -->
<svg version="1.1" id="Capa_1" xmlns="http://www.w3.org/2000/svg" xmlns:xlink="http://www.w3.org/1999/xlink" x="0px" y="0px"
	 viewBox="0 0 512 512" style="enable-background:new 0 0 512 512;" xml:space="preserve">
<path style="fill:#5C5560;" d="M512,256c0,141.385-114.615,256-256,256c-47.637,0-92.233-13.009-130.424-35.673
	c-25.328-15.026-47.835-34.283-66.55-56.811C22.162,375.171,0,318.171,0,256C0,114.615,114.615,0,256,0S512,114.615,512,256z"/>
<path style="fill:#EFEFEF;" d="M327.21,396.225v49.643c0,16.823-13.646,30.459-30.469,30.459H125.576
	c-25.328-15.026-47.835-34.283-66.55-56.811V240.065l217.172,126.454L327.21,396.225z"/>
<path style="fill:#4184F8;" d="M482.237,284.324c10.705,10.716,10.705,28.084,0,38.789l-73.079,73.09l-194.284-0.284L59.026,240.068
	V74.642c0-16.832,13.643-30.475,30.476-30.475h152.58L482.237,284.324z M164.311,125.298c0-14.68-11.889-26.569-26.569-26.569
	s-26.569,11.889-26.569,26.569c0,14.68,11.889,26.569,26.569,26.569S164.311,139.977,164.311,125.298z"/>
<path style="fill:#E2E2E2;" d="M327.21,396.225v49.643c0,16.823-13.646,30.459-30.469,30.459h-1.463l-80.405-80.405l61.325-29.403
	L327.21,396.225z"/>
<path style="fill:#A0C1FA;" d="M409.159,396.202l-0.034,0.023h-81.916H215.182l-0.307-0.307l75.458-75.458
	c11.9-11.89,31.192-11.89,43.082,0L409.159,396.202z"/>
<g>
</g>
<g>
</g>
<g>
</g>
<g>
</g>
<g>
</g>
<g>
</g>
<g>
</g>
<g>
</g>
<g>
</g>
<g>
</g>
<g>
</g>
<g>
</g>
<g>
</g>
<g>
</g>
<g>
</g>
</svg>
